#!OML:ASF H:\Dans Jumps\Project 1\Capture day 1\Session 1\subject.ASF
:FULLY-SPECIFIED
:DEGREES
632
root -0.179179 17.6895 10.5418 6.82541 -1.54356 -1.43105
lowerback -1.59003 0.17537 0.256105
upperback 1.18895 0.205577 1.11426
thorax 2.10662 0.0977142 1.00578
lowerneck -14.7299 -0.0185322 -2.13389
upperneck 11.241 0.195578 1.5696
head 5.80645 0.124877 0.861571
rclavicle -1.78906e-015 -8.54774e-015
rhumerus -23.2344 -23.2891 -80.0293
rradius 19.9939
rwrist 41.3816
rhand -20.5869 -27.2543
rfingers 7.12502
rthumb 5.77315 -57.1557
lclavicle -1.78906e-015 -8.54774e-015
lhumerus -24.944 3.9562 87.164
lradius 16.2003
lwrist 1.19933
lhand -24.8759 -6.04866
lfingers 7.12502
lthumb 1.63143 23.9248
rfemur -12.7758 -1.70138 20.8637
rtibia 21.0446
rfoot -13.9601 -2.63664
rtoes 5.85177
lfemur -13.3019 8.11139 -17.8382
ltibia 18.7386
lfoot -10.0961 4.50175
ltoes -9.38842
633
root -0.178077 17.6898 10.5396 6.8143 -1.53851 -1.43301
lowerback -1.59831 0.178232 0.269917
upperback 1.1834 0.209028 1.11424
thorax 2.10557 0.0996523 0.998147
lowerneck -14.7515 -0.012874 -2.11262
upperneck 11.2441 0.199736 1.56574
head 5.81097 0.12759 0.857348
rclavicle -4.79568e-015 -3.18055e-015
rhumerus -23.1987 -23.3027 -80.0118
rradius 19.9936
rwrist 41.3819
rhand -20.5678 -27.2916
rfingers 7.12502
rthumb 5.79168 -57.1925
lclavicle -4.79568e-015 -3.18055e-015
lhumerus -24.9457 3.85237 87.2074
lradius 16.2404
lwrist 1.2899
lhand -24.8547 -5.9609
lfingers 7.12502
lthumb 1.65191 24.0124
rfemur -12.7619 -1.70196 20.8617
rtibia 21.0269
rfoot -13.9466 -2.63783
rtoes 5.86819
lfemur -13.2941 8.12649 -17.8391
ltibia 18.7288
lfoot -10.0949 4.47843
ltoes -9.3705
634
root -0.177019 17.69 10.5371 6.80252 -1.53554 -1.44242
lowerback -1.59994 0.181369 0.288316
upperback 1.17729 0.21273 1.11772
thorax 2.10021 0.101761 0.991512
lowerneck -14.7493 -0.0168635 -2.12417
upperneck 11.2378 0.19293 1.59243
head 5.80869 0.125887 0.867033
rclavicle -1.46604e-015 8.54774e-015
rhumerus -23.1692 -23.2961 -79.9963
rradius 20.0035
rwrist 41.3697
rhand -20.5651 -27.3104
rfingers 7.12502
rthumb 5.79428 -57.2111
lclavicle -1.46604e-015 8.54774e-015
lhumerus -24.9479 3.77831 87.2396
lradius 16.2697
lwrist 1.34438
lhand -24.8536 -5.93518
lfingers 7.12502
lthumb 1.65294 24.0382
rfemur -12.7481 -1.69299 20.8681
rtibia 21.0087
rfoot -13.9309 -2.64699
rtoes 5.8746
lfemur -13.2878 8.1395 -17.8314
ltibia 18.7224
lfoot -10.0921 4.46122
ltoes -9.35812
635
root -0.175972 17.6902 10.5347 6.79255 -1.53448 -1.44895
lowerback -1.60202 0.185311 0.303031
upperback 1.16953 0.21762 1.1209
thorax 2.09338 0.104415 0.986662
lowerneck -14.7409 -0.0215455 -2.14757
upperneck 11.2334 0.185787 1.63123
head 5.80597 0.124427 0.882446
rclavicle -9.93923e-016 -2.18663e-015
rhumerus -23.145 -23.2857 -79.9799
rradius 20.0184
rwrist 41.355
rhand -20.5601 -27.3283
rfingers 7.12502
rthumb 5.79911 -57.229
lclavicle -9.93923e-016 -2.18663e-015
lhumerus -24.9529 3.72063 87.2636
lradius 16.2852
lwrist 1.37339
lhand -24.8778 -5.99219
lfingers 7.12502
lthumb 1.62956 23.9813
rfemur -12.7377 -1.67816 20.871
rtibia 20.9928
rfoot -13.9162 -2.65964
rtoes 5.88503
lfemur -13.2839 8.15284 -17.8277
ltibia 18.7169
lfoot -10.0892 4.44682
ltoes -9.36286
636
root -0.174948 17.6903 10.5324 6.78218 -1.53454 -1.45575
lowerback -1.60534 0.189607 0.318416
upperback 1.16267 0.222944 1.12409
thorax 2.08818 0.10729 0.981483
lowerneck -14.7288 -0.029829 -2.17957
upperneck 11.2289 0.175 1.67359
head 5.80265 0.121082 0.900037
rclavicle -4.47266e-016 -1.19271e-015
rhumerus -23.1201 -23.2693 -79.9659
rradius 20.0325
rwrist 41.3297
rhand -20.5769 -27.3316
rfingers 7.12502
rthumb 5.78284 -57.2327
lclavicle -4.47266e-016 -1.19271e-015
lhumerus -24.954 3.69447 87.2747
lradius 16.2838
lwrist 1.35918
lhand -24.9202 -6.13797
lfingers 7.12502
lthumb 1.58861 23.8359
rfemur -12.7278 -1.66856 20.8746
rtibia 20.9792
rfoot -13.9044 -2.66691
rtoes 5.89039
lfemur -13.2789 8.16296 -17.8232
ltibia 18.7124
lfoot -10.087 4.43676
ltoes -9.36575
637
root -0.173855 17.6904 10.5302 6.77249 -1.53668 -1.45863
lowerback -1.61023 0.194934 0.330242
upperback 1.15536 0.229745 1.12616
thorax 2.08335 0.110859 0.977192
lowerneck -14.7109 -0.0412157 -2.22139
upperneck 11.2238 0.160846 1.72367
head 5.79827 0.116255 0.921349
rclavicle -3.50358e-015 -8.34896e-015
rhumerus -23.0969 -23.2543 -79.9509
rradius 20.0466
rwrist 41.3041
rhand -20.6036 -27.3238
rfingers 7.12502
rthumb 5.75708 -57.2256
lclavicle -3.50358e-015 -8.34896e-015
lhumerus -24.9549 3.67797 87.2807
lradius 16.2817
lwrist 1.34075
lhand -24.9675 -6.28977
lfingers 7.12502
lthumb 1.54292 23.6844
rfemur -12.7201 -1.65962 20.8733
rtibia 20.9694
rfoot -13.8952 -2.67215
rtoes 5.892
lfemur -13.273 8.17165 -17.8233
ltibia 18.7059
lfoot -10.0827 4.42883
ltoes -9.36279
